<svg id="visual" viewBox="0 0 900 600" width="900" height="600" xmlns="http://www.w3.org/2000/svg" xmlns:xlink="http://www.w3.org/1999/xlink" version="1.1"><path d="M0 109L150 43L300 85L450 133L600 121L750 91L900 49L900 0L750 0L600 0L450 0L300 0L150 0L0 0Z" fill="#ccb200"></path><path d="M0 145L150 73L300 151L450 163L600 181L750 115L900 91L900 47L750 89L600 119L450 131L300 83L150 41L0 107Z" fill="#d79005"></path><path d="M0 223L150 151L300 259L450 331L600 325L750 271L900 181L900 89L750 113L600 179L450 161L300 149L150 71L0 143Z" fill="#d96d21"></path><path d="M0 433L150 403L300 415L450 457L600 427L750 403L900 439L900 179L750 269L600 323L450 329L300 257L150 149L0 221Z" fill="#d14b35"></path><path d="M0 469L150 451L300 469L450 499L600 469L750 481L900 493L900 437L750 401L600 425L450 455L300 413L150 401L0 431Z" fill="#bf2a46"></path><path d="M0 529L150 529L300 511L450 553L600 493L750 547L900 523L900 491L750 479L600 467L450 497L300 467L150 449L0 467Z" fill="#a50d54"></path><path d="M0 601L150 601L300 601L450 601L600 601L750 601L900 601L900 521L750 545L600 491L450 551L300 509L150 527L0 527Z" fill="#82035e"></path></svg>